<svg width="80" height="80" viewBox="0 0 80 80" fill="none" xmlns="http://www.w3.org/2000/svg">
<g clip-path="url(#clip0_2223_2139)">
<path d="M56.6666 26.6667H66.6666L76.6666 40.1867V60.0001H69.8833C69.487 62.7811 68.1006 65.3257 65.9788 67.1666C63.8571 69.0074 61.1423 70.021 58.3333 70.021C55.5242 70.021 52.8094 69.0074 50.6877 67.1666C48.5659 65.3257 47.1795 62.7811 46.7833 60.0001H29.8833C29.487 62.7811 28.1006 65.3257 25.9788 67.1666C23.8571 69.0074 21.1423 70.021 18.3333 70.021C15.5242 70.021 12.8094 69.0074 10.6877 67.1666C8.56587 65.3257 7.17952 62.7811 6.78325 60.0001H3.33325V20.0001C3.33325 19.116 3.68444 18.2682 4.30956 17.6431C4.93468 17.0179 5.78253 16.6667 6.66659 16.6667H53.3333C54.2173 16.6667 55.0652 17.0179 55.6903 17.6431C56.3154 18.2682 56.6666 19.116 56.6666 20.0001V26.6667ZM56.6666 33.3334V43.3334H69.9999V42.3834L63.3066 33.3334H56.6666Z" fill="#17479E"/>
</g>
<defs>
<clipPath id="clip0_2223_2139">
<rect width="80" height="80" fill="white"/>
</clipPath>
</defs>
</svg>
