<svg width="80" height="80" viewBox="0 0 80 80" fill="none" xmlns="http://www.w3.org/2000/svg">
<g clip-path="url(#clip0_2223_2143)">
<path d="M10 16.65C10 12.9767 12.9767 10 16.65 10H63.35C67.0233 10 70 12.9767 70 16.65V63.35C70 65.1137 69.2994 66.8051 68.0523 68.0523C66.8051 69.2994 65.1137 70 63.35 70H16.65C14.8863 70 13.1949 69.2994 11.9477 68.0523C10.7006 66.8051 10 65.1137 10 63.35V16.65ZM21.19 60H59.49C57.3421 56.9114 54.4784 54.3886 51.1436 52.6472C47.8088 50.9058 44.1021 49.9975 40.34 50C36.5779 49.9975 32.8711 50.9058 29.5364 52.6472C26.2016 54.3886 23.3379 56.9114 21.19 60ZM40 43.3333C41.5321 43.3333 43.0492 43.0316 44.4646 42.4453C45.8801 41.859 47.1662 40.9996 48.2496 39.9162C49.3329 38.8329 50.1923 37.5468 50.7786 36.1313C51.3649 34.7158 51.6667 33.1988 51.6667 31.6667C51.6667 30.1346 51.3649 28.6175 50.7786 27.202C50.1923 25.7866 49.3329 24.5004 48.2496 23.4171C47.1662 22.3337 45.8801 21.4744 44.4646 20.8881C43.0492 20.3018 41.5321 20 40 20C36.9058 20 33.9383 21.2292 31.7504 23.4171C29.5625 25.605 28.3333 28.5725 28.3333 31.6667C28.3333 34.7609 29.5625 37.7283 31.7504 39.9162C33.9383 42.1042 36.9058 43.3333 40 43.3333Z" fill="#17479E"/>
</g>
<defs>
<clipPath id="clip0_2223_2143">
<rect width="80" height="80" fill="white"/>
</clipPath>
</defs>
</svg>
