<svg width="80" height="80" viewBox="0 0 80 80" fill="none" xmlns="http://www.w3.org/2000/svg">
<g clip-path="url(#clip0_2223_2147)">
<path d="M73.3334 33.3333V66.6667C73.3334 67.5507 72.9822 68.3986 72.3571 69.0237C71.732 69.6488 70.8841 70 70.0001 70H10.0001C9.11603 70 8.26818 69.6488 7.64306 69.0237C7.01794 68.3986 6.66675 67.5507 6.66675 66.6667V33.3333H73.3334ZM73.3334 26.6667H6.66675V13.3333C6.66675 12.4493 7.01794 11.6014 7.64306 10.9763C8.26818 10.3512 9.11603 10 10.0001 10H70.0001C70.8841 10 71.732 10.3512 72.3571 10.9763C72.9822 11.6014 73.3334 12.4493 73.3334 13.3333V26.6667ZM50.0001 53.3333V60H63.3334V53.3333H50.0001Z" fill="#17479E"/>
</g>
<defs>
<clipPath id="clip0_2223_2147">
<rect width="80" height="80" fill="white"/>
</clipPath>
</defs>
</svg>
